<svg width="526" height="526" viewBox="0 0 526 526" fill="none" xmlns="http://www.w3.org/2000/svg">
<g clip-path="url(#clip0_219_17)">
<path d="M383.454 443.101C404.704 442.996 423.745 430.372 432.161 410.805C464.563 335.377 525.474 148.436 365.991 89.8399C240.066 43.5519 172.528 44.6039 128.344 67.8531C90.577 87.7359 65.8549 127.186 63.4353 169.266C58.3857 256.687 49.7594 440.471 151.488 442.049C242.486 443.522 335.377 443.312 383.454 443.101Z" fill="#00BFBA"/>
<path opacity="0.14" d="M116.246 432.265C137.496 404.282 182.732 360.308 271.521 329.274C370.83 294.664 425.849 205.138 449.414 156.115C496.123 236.909 456.252 354.628 432.161 410.804C423.851 430.266 404.704 442.996 383.454 443.101C335.377 443.311 242.486 443.522 151.488 442.049C137.917 441.838 126.24 438.367 116.246 432.265Z" fill="#2B41E3"/>
<g opacity="0.28">
<path d="M453.833 206.613C453.833 208.401 455.305 209.874 457.094 209.874C458.882 209.874 460.355 208.401 460.355 206.613C460.355 204.824 458.882 203.352 457.094 203.352C455.305 203.457 453.833 204.824 453.833 206.613Z" fill="white"/>
<path d="M420.064 206.613C420.064 208.401 421.536 209.874 423.325 209.874C425.113 209.874 426.586 208.401 426.586 206.613C426.586 204.824 425.113 203.352 423.325 203.352C421.431 203.457 420.064 204.824 420.064 206.613Z" fill="white"/>
<path d="M386.189 206.613C386.189 208.401 387.662 209.874 389.45 209.874C391.239 209.874 392.711 208.401 392.711 206.613C392.711 204.824 391.239 203.352 389.45 203.352C387.662 203.457 386.189 204.824 386.189 206.613Z" fill="white"/>
<path d="M453.833 231.544C453.833 233.333 455.305 234.806 457.094 234.806C458.882 234.806 460.355 233.333 460.355 231.544C460.355 229.756 458.882 228.283 457.094 228.283C455.305 228.283 453.833 229.756 453.833 231.544Z" fill="white"/>
<path d="M420.064 231.544C420.064 233.333 421.536 234.806 423.325 234.806C425.113 234.806 426.586 233.333 426.586 231.544C426.586 229.756 425.113 228.283 423.325 228.283C421.431 228.283 420.064 229.756 420.064 231.544Z" fill="white"/>
<path d="M386.189 231.544C386.189 233.333 387.662 234.806 389.45 234.806C391.239 234.806 392.711 233.333 392.711 231.544C392.711 229.756 391.239 228.283 389.45 228.283C387.662 228.283 386.189 229.756 386.189 231.544Z" fill="white"/>
<path d="M453.833 256.373C453.833 258.161 455.305 259.634 457.094 259.634C458.882 259.634 460.355 258.161 460.355 256.373C460.355 254.584 458.882 253.111 457.094 253.111C455.305 253.217 453.833 254.689 453.833 256.373Z" fill="white"/>
<path d="M420.064 256.373C420.064 258.161 421.536 259.634 423.325 259.634C425.113 259.634 426.586 258.161 426.586 256.373C426.586 254.584 425.113 253.111 423.325 253.111C421.431 253.217 420.064 254.689 420.064 256.373Z" fill="white"/>
<path d="M386.189 256.373C386.189 258.161 387.662 259.634 389.45 259.634C391.239 259.634 392.711 258.161 392.711 256.373C392.711 254.584 391.239 253.111 389.45 253.111C387.662 253.217 386.189 254.689 386.189 256.373Z" fill="white"/>
</g>
<path d="M276.676 325.594C276.676 327.698 278.464 329.276 280.673 329.276C282.882 329.276 284.671 327.593 284.671 325.594C284.671 323.49 282.882 321.912 280.673 321.912C278.464 321.912 276.676 323.595 276.676 325.594Z" fill="#292685"/>
<path fill-rule="evenodd" clip-rule="evenodd" d="M337.061 267.734C315.6 264.578 303.397 262.79 283.514 266.366C272.258 272.994 259.739 290.668 255.32 306.237L289.3 327.908L366.938 287.196L337.061 267.734Z" fill="#E6EEFF"/>
<path fill-rule="evenodd" clip-rule="evenodd" d="M247.22 288.775C269.522 287.723 276.465 277.729 306.132 276.257C333.168 274.994 358.521 286.566 379.246 285.619C388.924 285.199 399.76 321.493 398.497 331.066C390.397 393.029 389.24 499.807 389.24 499.807C381.876 509.801 374.512 518.532 367.253 525.896H239.751C234.385 520.11 229.02 513.483 223.655 506.224C223.55 506.329 238.173 289.196 247.22 288.775Z" fill="#3071FF"/>
<path fill-rule="evenodd" clip-rule="evenodd" d="M231.229 290.457L143.913 410.701C143.913 410.701 153.697 445.627 166.005 442.681C204.088 433.529 255.215 373.775 255.215 373.775L231.229 290.457Z" fill="#E6EEFF"/>
<path fill-rule="evenodd" clip-rule="evenodd" d="M325.278 526L321.596 405.441L349.685 280.779L369.988 279.832L384.716 286.144C401.233 293.508 408.912 304.344 408.176 322.017L395.867 440.052L404.704 526H325.278Z" fill="#E6EEFF"/>
<path fill-rule="evenodd" clip-rule="evenodd" d="M375.353 526L398.602 315.074C399.234 302.029 380.298 308.025 370.619 299.294L349.79 280.673L370.093 279.727L384.821 286.039C401.338 293.403 409.017 304.238 408.281 321.912L395.972 439.946L404.809 525.895L375.353 526Z" fill="#CFDEFF"/>
<path fill-rule="evenodd" clip-rule="evenodd" d="M337.061 267.734C337.061 267.734 353.051 283.514 334.325 321.912C327.172 336.64 317.599 377.879 321.701 407.65L363.466 345.898L349.369 330.013L374.196 315.811L370.409 279.201C358.416 274.993 358.101 274.257 337.061 267.734Z" fill="white"/>
<path fill-rule="evenodd" clip-rule="evenodd" d="M228.599 526.001L233.544 347.897C234.28 330.434 229.967 287.512 249.639 282.042L254.058 281.305L254.794 286.776C254.794 286.776 255.32 284.041 281.304 279.727C281.304 279.727 286.038 276.887 280.884 291.194C277.938 299.295 277.202 310.867 277.307 326.121C277.833 373.987 274.361 405.021 274.151 406.809L265.524 525.895H228.599V526.001Z" fill="#2A63E0"/>
<path fill-rule="evenodd" clip-rule="evenodd" d="M404.704 302.977C404.704 302.977 458.462 398.498 463.616 443.419C466.457 468.561 466.141 500.858 465.3 524.317L418.486 524.843C419.643 500.542 420.064 468.246 415.75 452.887C408.386 426.376 370.094 370.725 370.094 370.725L404.704 302.977Z" fill="#E6EEFF"/>
<path fill-rule="evenodd" clip-rule="evenodd" d="M404.704 302.977C404.704 302.977 458.462 398.498 463.616 443.419C466.457 468.561 466.141 500.858 465.3 524.317L452.676 524.843C444.049 489.286 458.672 470.139 454.569 446.469C449.835 419.012 429.006 391.765 420.59 370.41C405.862 333.274 398.603 315.075 398.603 315.075L404.704 302.977Z" fill="#CFDEFF"/>
<path fill-rule="evenodd" clip-rule="evenodd" d="M112.879 212.925C112.879 212.925 101.202 191.359 108.461 185.152C115.72 178.945 130.132 218.711 130.132 218.711L115.299 227.127L112.879 212.925Z" fill="#F5B8B0"/>
<path fill-rule="evenodd" clip-rule="evenodd" d="M144.334 290.142C144.334 290.142 129.922 281.095 116.456 272.048C101.728 262.159 101.833 254.585 113.826 245.012C117.193 242.382 129.396 243.854 129.396 243.854L148.542 259.108C148.542 259.108 172.738 273.521 165.9 285.093C158.957 296.77 144.334 290.142 144.334 290.142Z" fill="#F5B8B0"/>
<path fill-rule="evenodd" clip-rule="evenodd" d="M186.204 396.184L165.584 280.885L138.864 287.197C138.864 287.197 137.075 405.757 145.491 413.542C153.802 421.222 184.836 437.738 186.204 396.184Z" fill="#F5B8B0"/>
<path fill-rule="evenodd" clip-rule="evenodd" d="M169.267 296.244L130.869 313.181C130.869 313.181 136.339 393.449 148.332 423.431L169.056 433.109L190.517 414.068L169.267 296.244Z" fill="#E6EEFF"/>
<path fill-rule="evenodd" clip-rule="evenodd" d="M131.079 313.076L142.125 308.236C144.229 329.382 147.911 359.258 153.276 380.088L152.96 380.509C152.96 380.509 154.644 386.4 157.484 393.133C161.482 402.811 167.899 414.173 175.052 412.49C201.037 406.283 233.123 376.406 250.902 357.996L255.425 373.566C255.425 373.566 204.298 433.319 166.216 442.472C159.062 444.155 152.645 432.793 148.647 423.115C145.807 416.382 144.124 410.491 144.124 410.491L144.439 410.07C135.287 374.828 131.079 313.076 131.079 313.076Z" fill="#CFDEFF"/>
<path d="M150.331 276.045H149.805C184.521 269.523 211.241 241.224 211.557 207.981L221.551 144.23C222.393 138.549 219.447 133.078 214.187 130.764L155.906 104.99C153.381 103.938 150.541 103.833 148.016 104.885L91.2082 128.765C86.0534 130.974 82.8974 136.234 83.5286 141.705L90.4718 206.824C90.1562 240.172 115.93 270.89 150.331 276.045Z" fill="#F5F6F7"/>
<path d="M150.541 259.633H150.12C177.893 254.373 199.249 231.755 199.459 205.14L207.139 145.807L151.803 121.4L103.201 141.809L102.675 204.298C102.359 230.914 122.979 255.53 150.541 259.633Z" fill="#FF85FF"/>
<path d="M150.541 259.633H150.12L151.803 121.4L95.8368 144.86L102.57 204.298C102.359 230.914 122.978 255.53 150.541 259.633Z" fill="#FF65FF"/>
<path d="M151.278 212.504C154.539 212.504 157.274 209.769 157.274 206.508L157.169 171.897C157.169 168.636 154.434 165.9 151.172 165.9C147.911 165.9 145.176 168.636 145.176 171.897L145.281 206.508C145.281 209.874 148.016 212.504 151.278 212.504Z" fill="#F6F3EE"/>
<path d="M173.896 189.151C173.896 185.89 171.266 183.26 168.004 183.26L133.183 183.365C129.922 183.365 127.292 185.995 127.292 189.256C127.292 192.517 129.922 195.147 133.183 195.147L168.004 195.042C171.266 195.042 173.896 192.412 173.896 189.151Z" fill="#F6F3EE"/>
<path d="M328.96 258.898C342.636 263.842 353.472 275.204 358.942 288.669C362.519 297.401 359.574 307.079 361.888 316.127C364.728 327.173 371.146 336.851 375.143 347.476C376.406 350.948 371.146 353.367 369.883 349.896C363.571 333.274 354.524 320.019 354.945 301.609C355.366 284.987 342.005 269.839 326.856 264.368C323.28 263.001 325.384 257.635 328.96 258.898Z" fill="#013AD6"/>
<path d="M359.994 302.766C357.785 317.179 343.268 331.907 349.474 347.371C350.842 350.843 345.582 353.157 344.214 349.791C337.166 332.433 351.789 318.336 354.208 302.24C354.84 298.453 360.626 299.084 359.994 302.766Z" fill="#013AD6"/>
<path d="M367.674 356.733L363.15 401.127C361.782 410.7 360.31 416.066 348.422 415.119C348.422 416.802 348.317 418.485 348.422 420.063L350.316 420.274C359.047 421.115 366.937 414.803 367.884 406.072L373.249 352.84C374.091 344.214 368.62 348.212 367.674 356.733Z" fill="white"/>
<path d="M342.741 414.593L349.053 414.488C350.842 414.488 352.314 415.856 352.314 417.644V418.591C352.314 420.379 350.947 421.852 349.158 421.852L342.846 421.957C341.058 421.957 339.585 420.59 339.585 418.801V417.855C339.585 416.066 341.058 414.593 342.741 414.593Z" fill="#013AD6"/>
<path d="M352.525 355.997L367.148 398.183C370.62 407.23 373.355 412.069 384.716 408.387C385.137 409.965 385.558 411.648 385.874 413.226L384.085 413.857C375.774 416.698 366.622 412.385 363.782 404.074L346.213 353.578C343.478 345.267 349.685 347.897 352.525 355.997Z" fill="white"/>
<path d="M390.187 406.598L384.085 407.966C382.402 408.387 381.245 410.07 381.666 411.858L381.876 412.7C382.297 414.383 383.98 415.54 385.768 415.12L391.87 413.752C393.553 413.331 394.71 411.648 394.29 409.86L394.079 409.018C393.658 407.229 391.87 406.178 390.187 406.598Z" fill="#013AD6"/>
<path d="M370.093 353.052L373.355 352.842C375.038 352.737 376.3 351.369 376.195 349.686L376.09 348.003C375.985 346.32 374.617 345.057 372.934 345.162L369.673 345.373C367.989 345.478 366.727 346.846 366.832 348.529L366.937 350.212C367.043 351.895 368.41 353.158 370.093 353.052Z" fill="#013AD6"/>
<path d="M347.686 354.525L350.842 353.683C352.42 353.262 353.472 351.579 353.051 350.001L352.63 348.318C352.209 346.74 350.526 345.688 348.948 346.109L345.792 346.95C344.214 347.371 343.162 349.054 343.583 350.632L344.004 352.316C344.424 353.999 346.002 354.946 347.686 354.525Z" fill="#013AD6"/>
<path fill-rule="evenodd" clip-rule="evenodd" d="M274.782 161.482C274.782 161.482 239.435 174.422 263.947 208.296C288.458 242.171 274.782 161.482 274.782 161.482Z" fill="#142585"/>
<path fill-rule="evenodd" clip-rule="evenodd" d="M264.262 188.308C265.525 176.946 271.521 166.531 280.673 159.693C289.826 152.855 301.398 150.015 312.759 152.014C334.641 155.801 349.685 175.894 347.265 197.986C345.792 210.715 342.636 215.344 341.374 227.337C338.639 255.32 292.877 259.844 285.513 258.581C269.417 255.846 258.371 241.013 260.159 224.812C261.422 213.661 262.895 200.616 264.262 188.308Z" fill="#F5B8B0"/>
<path fill-rule="evenodd" clip-rule="evenodd" d="M334.22 287.196L326.435 231.545L286.985 239.225L285.512 290.773C287.722 322.859 336.534 319.387 334.22 287.196Z" fill="#F5B8B0"/>
<path fill-rule="evenodd" clip-rule="evenodd" d="M323.805 187.678C323.805 187.678 315.705 225.234 345.477 228.285C345.477 228.285 366.937 205.036 358.837 181.997C353.051 165.27 306.868 134.131 279.306 146.124C251.849 158.011 266.261 184.311 323.805 187.678Z" fill="#142585"/>
<path fill-rule="evenodd" clip-rule="evenodd" d="M286.354 258.687C286.354 258.687 306.342 260.896 324.962 247.746C324.962 247.746 304.659 273.204 286.038 269.733L286.354 258.687Z" fill="#E09F98"/>
<path d="M269.522 219.343C273.941 219.343 277.938 216.292 278.78 211.874L278.99 210.822C279.516 208.507 278.99 206.088 277.728 204.089C276.36 202.09 274.256 200.723 271.837 200.302L261.948 198.619C257.004 197.777 252.164 201.038 251.112 205.877L250.902 206.929C250.376 209.244 250.902 211.663 252.164 213.662C253.532 215.661 255.636 217.029 258.056 217.449L267.944 219.133C268.47 219.238 268.996 219.343 269.522 219.343ZM260.475 200.302C260.896 200.302 261.317 200.302 261.738 200.407L271.626 202.09C273.52 202.406 275.203 203.458 276.36 205.036C277.412 206.614 277.833 208.507 277.412 210.401L277.202 211.453C276.36 215.451 272.363 218.081 268.365 217.449L258.476 215.766C256.583 215.451 254.9 214.399 253.742 212.821C252.69 211.243 252.27 209.349 252.69 207.455L252.901 206.403C253.637 202.721 256.898 200.302 260.475 200.302Z" fill="#142585"/>
<path d="M302.555 223.972C306.974 223.972 310.971 220.921 311.813 216.503L312.023 215.451C312.549 213.136 312.023 210.717 310.761 208.718C309.393 206.719 307.289 205.352 304.87 204.931L294.981 203.248C290.036 202.406 285.197 205.667 284.145 210.506L283.935 211.558C283.409 213.873 283.935 216.292 285.197 218.291C286.565 220.29 288.669 221.658 291.088 222.078L300.977 223.762C301.503 223.867 302.029 223.972 302.555 223.972ZM293.508 204.931C293.929 204.931 294.349 204.931 294.77 205.036L304.659 206.719C306.553 207.035 308.236 208.087 309.393 209.665C310.445 211.243 310.866 213.136 310.445 215.03L310.235 216.082C309.393 220.08 305.396 222.71 301.398 222.078L291.509 220.395C289.616 220.08 287.932 219.028 286.775 217.45C285.723 215.872 285.302 213.978 285.723 212.084L285.934 211.032C286.67 207.456 289.931 204.931 293.508 204.931Z" fill="#142585"/>
<path d="M310.971 217.239L347.581 214.609C348.107 214.609 348.422 214.188 348.422 213.662C348.422 213.136 348.002 212.82 347.476 212.82L310.971 215.45C310.445 215.45 310.13 215.871 310.13 216.397C310.13 216.818 310.445 217.239 310.971 217.239Z" fill="#142585"/>
<path fill-rule="evenodd" clip-rule="evenodd" d="M340.638 213.136C335.062 212.295 329.697 217.239 328.645 224.287C327.488 231.336 331.064 237.753 336.64 238.7C342.216 239.541 347.581 234.597 348.633 227.549C349.685 220.5 346.108 213.978 340.638 213.136Z" fill="#F5B8B0"/>
<path fill-rule="evenodd" clip-rule="evenodd" d="M257.319 526L267.523 385.663L263.105 299.925L250.165 279.621L241.539 281.094C221.867 286.564 226.18 329.486 225.443 346.949L220.499 526H257.319Z" fill="#E6EEFF"/>
<path fill-rule="evenodd" clip-rule="evenodd" d="M272.783 290.248C269.838 298.348 269.101 309.92 269.206 325.174C269.732 374.513 266.05 405.968 266.05 405.968L238.698 347.477L257.424 332.117L237.015 316.443L246.799 276.993C246.799 276.993 257.529 270.786 283.514 266.473C283.514 266.473 277.938 275.941 272.783 290.248Z" fill="white"/>
<path d="M252.375 348.108C259.423 332.854 257.424 313.602 260.475 297.296C263.21 282.147 269.101 266.262 285.302 261.738C288.037 261.002 288.879 265.315 286.144 266.157C268.996 270.891 265.525 291.405 263.526 306.554C261.737 320.545 262.474 336.641 256.583 349.686C255.425 352.21 251.217 350.738 252.375 348.108Z" fill="#013AD6"/>
<path d="M242.167 380.23C235.749 376.474 233.59 368.225 237.347 361.806C241.103 355.388 249.352 353.229 255.77 356.986C262.189 360.742 264.347 368.991 260.591 375.409C256.835 381.828 248.586 383.986 242.167 380.23Z" fill="#013AD6"/>
<path d="M247.746 358.207L256.477 360.732L259.739 349.265C260.159 347.897 259.318 346.53 258.055 346.214L254.163 345.057C252.795 344.636 251.428 345.478 251.112 346.74L247.746 358.207Z" fill="#013AD6"/>
<path d="M245.351 375.325C240.06 373.069 237.6 366.951 239.857 361.66C242.113 356.369 248.231 353.91 253.522 356.166C258.813 358.423 261.272 364.541 259.016 369.832C256.759 375.122 250.641 377.582 245.351 375.325Z" fill="#FBFBFF"/>
<path d="M240.35 365.048C238.521 359.595 241.459 353.691 246.912 351.862C252.365 350.033 258.269 352.971 260.098 358.425C261.927 363.878 258.989 369.782 253.536 371.611C248.082 373.44 242.179 370.502 240.35 365.048Z" fill="#013AD6"/>
<path d="M245.116 357.681C243.853 360.627 245.116 363.993 248.061 365.361C251.007 366.623 254.373 365.361 255.741 362.415C257.003 359.469 255.741 356.103 252.795 354.735C249.85 353.473 246.483 354.735 245.116 357.681Z" fill="#0145FF"/>
<path d="M279.306 210.505L284.145 211.136C284.566 211.241 284.986 210.926 284.986 210.505C285.092 210.084 284.776 209.663 284.355 209.663L279.516 209.032C279.095 208.927 278.674 209.243 278.674 209.663C278.569 209.979 278.885 210.4 279.306 210.505Z" fill="#142585"/>
<g opacity="0.32">
<path d="M387.978 186.73L412.594 179.051C414.172 178.525 415.119 176.842 414.593 175.264L406.914 150.647C406.388 149.069 404.704 148.122 403.126 148.648L378.51 156.328C376.932 156.854 375.985 158.537 376.511 160.115L384.19 184.732C384.611 186.31 386.294 187.256 387.978 186.73ZM407.755 174.106L389.03 179.998L383.138 161.272L401.864 155.381L407.755 174.106Z" fill="white"/>
</g>
<g opacity="0.24">
<path d="M98.5724 403.864C111.512 403.864 122.137 393.344 122.137 380.299C122.137 367.36 111.617 356.734 98.5724 356.734C85.6328 356.734 75.0076 367.254 75.0076 380.299C75.0076 393.239 85.6328 403.864 98.5724 403.864ZM98.5724 366.518C106.147 366.518 112.354 372.725 112.354 380.299C112.354 387.874 106.147 394.08 98.5724 394.08C90.998 394.08 84.7912 387.874 84.7912 380.299C84.7912 372.725 90.998 366.518 98.5724 366.518Z" fill="white"/>
</g>
<path d="M120.664 299.609C116.772 299.609 67.3276 299.609 67.3276 299.609" stroke="white" stroke-width="0.9459" stroke-miterlimit="10" stroke-linecap="round" stroke-linejoin="round"/>
<path d="M202.51 458.988C198.617 458.988 149.173 458.988 149.173 458.988" stroke="white" stroke-width="0.9459" stroke-miterlimit="10" stroke-linecap="round" stroke-linejoin="round"/>
<path d="M478.344 299.609C474.452 299.609 425.008 299.609 425.008 299.609" stroke="white" stroke-width="0.9459" stroke-miterlimit="10" stroke-linecap="round" stroke-linejoin="round"/>
<path opacity="0.28" d="M106.462 439.946C106.462 442.681 108.672 444.996 111.512 444.996C114.247 444.996 116.562 442.787 116.562 439.946C116.562 437.211 114.352 434.896 111.512 434.896C108.777 434.896 106.462 437.211 106.462 439.946Z" fill="white"/>
<path opacity="0.28" d="M64.5927 247.747C64.5927 250.482 66.8019 252.796 69.6423 252.796C72.3775 252.796 74.6919 250.587 74.6919 247.747C74.6919 245.012 72.4827 242.697 69.6423 242.697C66.8019 242.697 64.5927 244.906 64.5927 247.747Z" fill="white"/>
<path opacity="0.28" d="M222.603 243.538C222.603 246.273 224.812 248.587 227.653 248.587C230.493 248.587 232.702 246.378 232.702 243.538C232.702 240.697 230.493 238.488 227.653 238.488C224.812 238.488 222.603 240.697 222.603 243.538Z" fill="white"/>
</g>
<defs>
<clipPath id="clip0_219_17">
<rect width="526" height="526" fill="white" transform="matrix(-1 0 0 1 526 0)"/>
</clipPath>
</defs>
</svg>
