<svg width="501" height="778" viewBox="0 0 501 778" fill="none" xmlns="http://www.w3.org/2000/svg">
<path d="M0.166504 256.79C0.166504 256.79 198.767 207.39 247.767 357.39C296.767 507.39 498.067 622.79 500.167 777.19L11.5665 777.99C5.2665 777.99 0.166504 771.29 0.166504 762.99V256.79Z" fill="#00CEC8"/>
<g clip-path="url(#clip0_220_92)">
<path opacity="0.28" d="M24.1665 459.5C24.1665 461.7 22.3665 463.5 20.1665 463.5C17.9665 463.5 16.1665 461.7 16.1665 459.5C16.1665 457.3 17.9665 455.5 20.1665 455.5C22.3665 455.5 24.1665 457.3 24.1665 459.5Z" fill="white"/>
<path d="M112.866 391.3C115.766 391.3 146.566 391.3 146.566 391.3" stroke="white" stroke-width="0.9459" stroke-miterlimit="10" stroke-linecap="round" stroke-linejoin="round"/>
<path d="M161.267 494.7C164.167 494.7 194.967 494.7 194.967 494.7" stroke="white" stroke-width="0.9459" stroke-miterlimit="10" stroke-linecap="round" stroke-linejoin="round"/>
<path d="M268.766 675.9C271.666 675.9 302.466 675.9 302.466 675.9" stroke="white" stroke-width="0.9459" stroke-miterlimit="10" stroke-linecap="round" stroke-linejoin="round"/>
<path opacity="0.28" d="M291.666 642.3C291.666 644.4 289.966 646 287.966 646C285.866 646 284.266 644.3 284.266 642.3C284.266 640.3 285.966 638.6 287.966 638.6C290.066 638.6 291.666 640.2 291.666 642.3Z" fill="white"/>
<path opacity="0.28" d="M360.867 520.6C360.867 522.7 359.167 524.3 357.167 524.3C355.067 524.3 353.467 522.6 353.467 520.6C353.467 518.6 355.167 516.9 357.167 516.9C359.167 516.9 360.867 518.6 360.867 520.6Z" fill="white"/>
<path opacity="0.28" d="M272.466 412.9C274.51 412.9 276.166 411.243 276.166 409.2C276.166 407.157 274.51 405.5 272.466 405.5C270.423 405.5 268.766 407.157 268.766 409.2C268.766 411.243 270.423 412.9 272.466 412.9Z" fill="white"/>
<path opacity="0.28" d="M82.2665 598.2C82.2665 600.3 80.5665 601.9 78.5665 601.9C76.4665 601.9 74.8665 600.2 74.8665 598.2C74.8665 596.1 76.5665 594.5 78.5665 594.5C80.5665 594.5 82.2665 596.1 82.2665 598.2Z" fill="white"/>
<path d="M206.066 473.2L156.366 456.6C151.366 454.9 148.566 449.4 150.266 444.4L163.566 404.4C165.266 399.4 170.766 396.6 175.766 398.3L225.466 414.9C230.466 416.6 233.266 422.1 231.566 427.1L218.266 467.1C216.666 472.2 211.166 474.9 206.066 473.2Z" fill="#DBE7FF"/>
<path d="M177.666 413.6C176.866 416 174.266 417.3 171.766 416.5C169.366 415.7 168.066 413.1 168.866 410.6C169.666 408.2 172.266 406.9 174.766 407.7C177.166 408.5 178.466 411.1 177.666 413.6Z" fill="#2F81EC"/>
<path d="M172.067 430.2C171.267 432.6 168.667 433.9 166.167 433.1C163.767 432.3 162.467 429.7 163.267 427.2C164.067 424.8 166.667 423.5 169.167 424.3C171.567 425.2 172.967 427.8 172.067 430.2Z" fill="#2F81EC"/>
<path d="M166.567 446.9C165.767 449.3 163.167 450.6 160.667 449.8C158.267 449 156.967 446.4 157.767 443.9C158.567 441.5 161.167 440.2 163.667 441C166.167 441.8 167.367 444.4 166.567 446.9Z" fill="#2F81EC"/>
<path d="M199.867 421C199.067 423.4 196.467 424.7 193.967 423.9C191.567 423.1 190.267 420.5 191.067 418C191.867 415.6 194.467 414.3 196.967 415.1C199.367 415.9 200.667 418.5 199.867 421Z" fill="#2F81EC"/>
<path d="M194.266 437.6C193.466 440 190.866 441.3 188.366 440.5C185.966 439.7 184.666 437.1 185.466 434.6C186.266 432.2 188.866 430.9 191.366 431.7C193.766 432.6 195.066 435.2 194.266 437.6Z" fill="#2F81EC"/>
<path d="M188.766 454.3C187.966 456.7 185.366 458 182.866 457.2C180.466 456.4 179.166 453.8 179.966 451.3C180.766 448.9 183.366 447.6 185.866 448.4C188.266 449.2 189.566 451.8 188.766 454.3Z" fill="#2F81EC"/>
<path d="M222.067 428.4C221.267 430.8 218.667 432.1 216.167 431.3C213.767 430.5 212.467 427.9 213.267 425.4C214.067 423 216.667 421.7 219.167 422.5C221.567 423.3 222.867 425.9 222.067 428.4Z" fill="#2F81EC"/>
<path d="M216.466 445C215.666 447.4 213.066 448.7 210.566 447.9C208.166 447.1 206.866 444.5 207.666 442C208.466 439.6 211.066 438.3 213.566 439.1C215.966 440 217.266 442.6 216.466 445Z" fill="#2F81EC"/>
<path d="M210.867 461.7C210.067 464.1 207.467 465.4 204.967 464.6C202.567 463.8 201.267 461.2 202.067 458.7C202.867 456.3 205.467 455 207.967 455.8C210.367 456.6 211.767 459.2 210.867 461.7Z" fill="#2F81EC"/>
<path d="M185.566 410L171.066 453.3" stroke="#2C4482" stroke-width="1.5916" stroke-miterlimit="10" stroke-linecap="round" stroke-linejoin="round"/>
<path d="M208.667 417.7L194.267 461" stroke="#2C4482" stroke-width="1.5916" stroke-miterlimit="10" stroke-linecap="round" stroke-linejoin="round"/>
<path fill-rule="evenodd" clip-rule="evenodd" d="M228.767 607H318.167C329.067 607 337.967 598.2 337.967 587.2V558C337.967 547.1 329.167 538.2 318.167 538.2H228.767C217.867 538.2 208.967 547 208.967 558V587.3C209.067 598.2 217.867 607 228.767 607Z" fill="#A1BFFF"/>
<path fill-rule="evenodd" clip-rule="evenodd" d="M166.167 576.1C165.367 573.9 164.967 571.5 164.967 569V537.2C164.967 525.3 174.567 515.7 186.467 515.7H294.767C306.667 515.7 316.267 525.3 316.267 537.2V569C316.267 580.9 306.667 590.5 294.767 590.5H186.467L167.367 600.9C164.467 602.5 161.067 600 161.767 596.7L166.167 576.1Z" fill="#F0F5FF"/>
<path d="M300.566 543H178.167" stroke="#223A7A" stroke-width="1.7967" stroke-miterlimit="10" stroke-linecap="round"/>
<path d="M300.566 562.3H214.866" stroke="#223A7A" stroke-width="1.7967" stroke-miterlimit="10" stroke-linecap="round"/>
<path d="M304.855 503.351C319.073 500.975 328.672 487.524 326.297 473.307C323.921 459.09 310.47 449.49 296.253 451.866C282.036 454.241 272.436 467.692 274.812 481.909C277.187 496.127 290.638 505.726 304.855 503.351Z" fill="#63FFF5"/>
<path d="M290.167 475.6L299.267 488.9L311.066 466.3" stroke="#FCFEFF" stroke-width="3.9635" stroke-miterlimit="10" stroke-linecap="round" stroke-linejoin="round"/>
<path d="M351.466 643.8C346.866 647.5 340.066 646.7 336.366 642.1C332.666 637.5 333.466 630.7 338.066 627C342.666 623.3 349.466 624.1 353.166 628.7C356.866 633.4 356.066 640.1 351.466 643.8Z" fill="white"/>
<path d="M351.466 643.8C346.866 647.5 340.066 646.7 336.366 642.1L353.166 628.8C356.866 633.4 356.066 640.1 351.466 643.8Z" fill="#FFAC61"/>
<path d="M98.8666 423C95.1666 424.8 90.7666 423.3 88.9666 419.6L82.3666 406C80.5666 402.3 82.0666 397.9 85.7666 396.1C89.4666 394.3 93.8666 395.8 95.6666 399.5L102.267 413C104.067 416.7 102.567 421.2 98.8666 423Z" fill="#2651DE"/>
<path d="M85.4666 412.4L82.3666 406C80.5666 402.3 82.0666 397.9 85.7666 396.1C89.4666 394.3 93.8666 395.8 95.6666 399.5L98.7666 405.9L85.4666 412.4Z" fill="white"/>
<path d="M392.167 664.2L264.567 703.8L288.567 777.8H430.767L392.167 664.2Z" fill="#F0F5FF"/>
<path d="M383.367 685.1L307.067 708.4L304.067 701.3L380.967 677.8L383.367 685.1Z" fill="#A1BFFF"/>
<path d="M387.667 699.2L316.667 720.8L315.067 716.6L386.267 694.9L387.667 699.2Z" fill="#A1BFFF"/>
<path d="M300.867 727.5L304.767 713.6L301.067 714.9L299.267 722C298.967 723.3 298.667 724.4 298.367 726L298.167 726.1C298.067 726 298.067 726 297.967 725.9L298.367 725.8L291.467 720.8L289.367 719.1L289.267 719.2L288.267 718.4C291.767 716.3 293.567 713.2 292.367 709.7C290.867 705 286.267 704.8 280.667 706.8L272.067 709.9L279.367 732.6L282.867 731.3L279.767 721.7L284.767 719.9L293.367 726.3L296.567 728.7L292.367 743.4L296.067 742.1L298.067 734.5C298.367 733.1 298.767 731.7 299.067 730.1L299.267 730C300.567 731.1 301.767 731.9 302.767 732.8L308.767 737.5L312.667 736.1L300.867 727.5ZM283.567 717.9L278.967 719.6L276.267 711.1L280.867 709.4C285.167 707.8 287.867 708.1 288.867 711C289.767 714 287.867 716.4 283.567 717.9Z" fill="#2D69ED"/>
<path opacity="0.73" d="M260.567 777.8H105.467V657.2C105.467 641.3 118.367 628.5 134.267 628.5H231.967C247.867 628.5 260.667 641.4 260.667 657.3L260.567 777.8Z" fill="#3171FF"/>
<path d="M244.467 777.8H89.2666V657.3C89.2666 641.4 102.167 628.6 118.067 628.6H215.767C231.667 628.6 244.467 641.5 244.467 657.4V777.8Z" fill="#F0F5FF"/>
<path d="M230.967 777.8H102.667V650.3H230.967V777.8Z" fill="#4D85FF"/>
<path d="M230.967 650.5H102.667V673.1H230.967V650.5Z" fill="#223A7A"/>
<path d="M111.567 656H123.367" stroke="white" stroke-width="1.2752" stroke-miterlimit="10" stroke-linecap="round" stroke-linejoin="round"/>
<path d="M111.567 661.9H123.367" stroke="white" stroke-width="1.2752" stroke-miterlimit="10" stroke-linecap="round" stroke-linejoin="round"/>
<path d="M111.567 667.7L123.367 667.8" stroke="white" stroke-width="1.2752" stroke-miterlimit="10" stroke-linecap="round" stroke-linejoin="round"/>
<path d="M157.378 717.747C162.975 705.186 157.33 690.466 144.769 684.869C132.208 679.272 117.488 684.917 111.891 697.478C106.294 710.039 111.939 724.759 124.5 730.356C137.061 735.953 151.781 730.308 157.378 717.747Z" fill="#63FFF5"/>
<path d="M134.667 721.2C132.467 721.2 130.567 719.4 130.567 717.1V698C130.567 695.8 132.367 693.9 134.667 693.9C136.867 693.9 138.767 695.7 138.767 698V717.1C138.667 719.4 136.867 721.2 134.667 721.2Z" fill="white"/>
<path d="M121.067 707.6C121.067 705.4 122.867 703.5 125.167 703.5H144.267C146.467 703.5 148.367 705.3 148.367 707.6C148.367 709.8 146.567 711.7 144.267 711.7H125.167C122.867 711.7 121.067 709.8 121.067 707.6Z" fill="white"/>
<path d="M164.067 707.5H218.467" stroke="white" stroke-width="1.247" stroke-miterlimit="10" stroke-linecap="round"/>
<path d="M164.067 689.8H218.467" stroke="white" stroke-width="1.247" stroke-miterlimit="10" stroke-linecap="round"/>
<path d="M164.067 723.3H202.167" stroke="white" stroke-width="1.247" stroke-miterlimit="10" stroke-linecap="round"/>
<path d="M143.567 638.2H191.267" stroke="#223A7A" stroke-width="2.1314" stroke-miterlimit="10" stroke-linecap="round"/>
<path d="M107.567 504.6L100.667 506C95.6666 507 90.7666 503.8 89.7666 498.8L84.7666 474.2C83.7666 469.2 86.9666 464.3 91.9666 463.3L98.8666 461.9C103.867 460.9 108.767 464.1 109.767 469.1L114.767 493.7C115.767 498.7 112.567 503.6 107.567 504.6Z" fill="#F0F5FF"/>
<path d="M111.167 468.8L83.3665 474.5C81.0665 475 78.8665 473.5 78.4665 471.2L77.8665 468.1C77.3665 465.8 78.8665 463.6 81.1665 463.2L108.967 457.5C111.267 457 113.467 458.5 113.867 460.8L114.467 463.9C114.867 466.1 113.367 468.3 111.167 468.8Z" fill="#2B41E3"/>
<path d="M130.466 563.499L104.766 568.999C98.3665 570.399 91.9665 566.199 90.5665 559.799L77.3665 498.099C75.9665 491.699 80.1665 485.299 86.5665 483.899L112.266 478.399C118.666 476.999 125.066 481.199 126.466 487.599L139.666 549.299C141.066 555.699 136.866 562.099 130.466 563.499Z" fill="#F0F5FF"/>
<path d="M130.688 507.183L81.5095 517.736L90.5309 559.777L139.709 549.224L130.688 507.183Z" fill="#F6F7FA"/>
<path d="M107.138 520.596L82.5977 525.862L87.1084 546.883L111.649 541.617L107.138 520.596Z" fill="#FFAC61"/>
<path d="M110.666 474.694L85.9307 480.002L86.9797 484.89L111.715 479.583L110.666 474.694Z" fill="#F0F5FF"/>
<path d="M138.711 544.659L89.5325 555.212L90.5185 559.807L139.697 549.254L138.711 544.659Z" fill="#FFAC61"/>
<path d="M130.217 504.955L81.0383 515.508L82.0244 520.103L131.203 509.55L130.217 504.955Z" fill="#FFAC61"/>
<path d="M87.2665 512.7C88.2665 512.5 88.9665 511.5 88.7665 510.5L85.5665 494.8C85.3665 493.8 84.3665 493.1 83.3665 493.3C82.3665 493.5 81.6665 494.5 81.8665 495.5L85.0665 511.2C85.2665 512.2 86.1665 512.9 87.2665 512.7Z" fill="white"/>
<path d="M82.7664 490.4C83.4664 490.9 84.3664 490.7 84.8664 490L86.0664 488.3C86.5664 487.6 86.3664 486.7 85.6664 486.2C84.9664 485.7 84.0664 485.9 83.5664 486.6L82.3664 488.3C81.8664 489 82.0664 490 82.7664 490.4Z" fill="#F6F7FA"/>
</g>
<path d="M0.166504 734.5V778H49.6665V734.5H0.166504Z" fill="#00CEC8"/>
<path d="M0.166549 0V7.06849C2.10355 29.1826 21.547 69.8363 90.1665 99.5C186.167 141 217.667 242 229.667 295.5C239.267 338.3 252.667 372.333 258.167 384L0.166549 369V7.06849C-0.0643694 4.43216 -0.0464835 2.05932 0.166549 0Z" fill="#00CEC8"/>
<defs>
<clipPath id="clip0_220_92">
<rect width="500" height="500" fill="white" transform="translate(0.166504 278)"/>
</clipPath>
</defs>
</svg>
