<svg width="20" height="18" viewBox="0 0 20 18" fill="none" xmlns="http://www.w3.org/2000/svg">
<path fill-rule="evenodd" clip-rule="evenodd" d="M9.9468 1.61721C12.1031 -0.53907 15.5991 -0.539072 17.7554 1.61721C19.272 3.13381 19.7219 5.31317 19.1051 7.223H11.6238C11.3248 7.223 11.0544 7.40063 10.9356 7.67504L10.3356 9.06105L8.72482 4.59608C8.62046 4.3068 8.35007 4.11053 8.04269 4.10095C7.73531 4.09137 7.45322 4.27041 7.33105 4.55263L6.17505 7.223H0.26747C-0.349303 5.31317 0.10061 3.13382 1.61721 1.61721C3.7735 -0.539069 7.26952 -0.539068 9.4258 1.61722L9.6863 1.87771L9.9468 1.61721ZM1.02183 8.723C1.19761 8.96943 1.39607 9.20467 1.61721 9.42581L9.68609 17.4947L9.68631 17.4945L9.68652 17.4947L17.7554 9.4258C17.9765 9.20466 18.175 8.96943 18.3508 8.723H12.1164L10.9604 11.3934C10.8382 11.6756 10.5562 11.8546 10.2488 11.845C9.94139 11.8355 9.67101 11.6392 9.56665 11.3499L7.95591 6.88495L7.35591 8.27095C7.23711 8.54537 6.96666 8.723 6.66763 8.723H1.02183Z" fill="#CDE9FF"/>
</svg>
